/* XPM */
static char * maximize_toggled_pressed_traditional_23p_xpm[] = {
"15 15 5 1",
" 	c None",
".	c #000000",
"+	c #b4b7b9",
"@	c #343739",
"#	c #f0ecdf",
"..............+",
".@@@@@@@@@@@@@+",
".@@@@@@@@@@@@@+",
".@@@@@@##@@@@@+",
".@@@@@####@@@@+",
".@@@@##@@##@@@+",
".@@@##@@@@##@@+",
".@@##@@@@@@##@+",
".@@##@@@@@@##@+",
".@@@##@@@@##@@+",
".@@@@##@@##@@@+",
".@@@@@####@@@@+",
".@@@@@@##@@@@@+",
".@@@@@@@@@@@@@+",
"+++++++++++++++"};
