/* XPM */
static char * maximize_pressed_traditional_23p_xpm[] = {
"15 15 6 1",
" 	c None",
".	c #292929",
"+	c #ffffff",
"@	c #a8a8a8",
"#	c #6a6a6a",
"$	c #000000",
"..............+",
".@@@@@@@@@@@@@+",
".@@@@@@@@@@@@@+",
".@@@@@@@@@@@@@+",
".@@@@@@@@@@@@@+",
".@@@@@@##@@@@@+",
".@@@@@#$$#@@@@+",
".@@@@#$##$#@@@+",
".@@@#$#@@#$#@@+",
".@@#$#@@@@#$#@+",
".@@##@@@@@@##@+",
".@@@@@@@@@@@@@+",
".@@@@@@@@@@@@@+",
".@@@@@@@@@@@@@+",
"+++++++++++++++"};
