/* XPM */
static char * maximize_active_traditional_23p_xpm[] = {
"15 15 7 1",
" 	c None",
".	c #ffffff",
"+	c #292929",
"@	c #dedede",
"#	c #7e7e7e",
"$	c #6a6a6a",
"%	c #000000",
"..............+",
".@@@@@@@@@@@@#+",
".@@@@@@@@@@@@#+",
".@@@@@@@@@@@@#+",
".@@@@@$$@@@@@#+",
".@@@@$%%$@@@@#+",
".@@@$%$$%$@@@#+",
".@@$%$@@$%$@@#+",
".@$%$@@@@$%$@#+",
".@$$@@@@@@$$@#+",
".@@@@@@@@@@@@#+",
".@@@@@@@@@@@@#+",
".@@@@@@@@@@@@#+",
".#############+",
"+++++++++++++++"};
