/* XPM */
static char * title_4_active_27p_traditional_xpm[] = {
"3 27 5 1",
" 	c None",
".	c #460000",
"+	c #ffba74",
"@	c #f0651f",
"#	c #c53a00",
"...",
"+++",
"@@@",
"@@@",
"@@@",
"@@@",
"@@@",
"@@@",
"@@@",
"@@@",
"@@@",
"@@@",
"@@@",
"@@@",
"@@@",
"@@@",
"@@@",
"@@@",
"@@@",
"@@@",
"@@@",
"@@@",
"@@@",
"@@@",
"@@@",
"###",
"..."};
