/* XPM */
static char * shade_pressed_traditional_27p_xpm[] = {
"19 19 5 1",
" 	c None",
".	c #000000",
"+	c #b8b5a7",
"@	c #383527",
"#	c #f0e9d2",
"..................+",
".@@@@@@@@@@@@@@@@@+",
".@@@@@@@@@@@@@@@@@+",
".@@@@@@@@@@@@@@@@@+",
".@@@############@@+",
".@@@############@@+",
".@@@@@@@@@@@@@@@@@+",
".@@@@@@@@@@@@@@@@@+",
".@@@@@@@@@@@@@@@@@+",
".@@@@@@@@##@@@@@@@+",
".@@@@@@@####@@@@@@+",
".@@@@@@######@@@@@+",
".@@@@@###@@###@@@@+",
".@@@@###@@@@###@@@+",
".@@@###@@@@@@###@@+",
".@@@##@@@@@@@@##@@+",
".@@@@@@@@@@@@@@@@@+",
".@@@@@@@@@@@@@@@@@+",
"+++++++++++++++++++"};
