/* XPM */
static char * stick_active_19p_xpm[] = {
"19 19 7 1",
" 	c None",
".	c #390000",
"+	c #ffff55",
"@	c #dcbf2b",
"#	c #e3aa00",
"$	c #b87f00",
"%	c #ffffff",
"...................",
".++++++++++++++++@.",
".+###############$.",
".+###############$.",
".+###############$.",
".+###############$.",
".+###############$.",
".+###############$.",
".+#######%#######$.",
".+######%%%######$.",
".+#######%#######$.",
".+###############$.",
".+###############$.",
".+###############$.",
".+###############$.",
".+###############$.",
".+###############$.",
".@$$$$$$$$$$$$$$$$.",
"..................."};
