/* XPM */
static char * top_left_active_traditional_19p_xpm[] = {
"4 19 6 1",
" 	c None",
".	c #000000",
"+	c #c0f0f4",
"@	c #6b9b9f",
"#	c #40A740",
"$	c #407074",
"....",
".+++",
".+@@",
".+@@",
".+@@",
".+@@",
".+@@",
".+@@",
".+@@",
".+@@",
".+@@",
".+@@",
".+@@",
".+@@",
".+@@",
".+@@",
".+@@",
".#$$",
"...."};
