/* XPM */
static char * shade_pressed_23p_xpm[] = {
"23 23 4 1",
" 	c None",
".	c #000000",
"+	c #272e38",
"@	c #8c98a8",
".......................",
".+++++++++++++++++++++.",
".+++++++++++++++++++++.",
".+++++++++++++++++++++.",
".+++++++++++++++++++++.",
".+++++++++++++++++++++.",
".+++++++++++++++++++++.",
".+++++++++++++++++++++.",
".+++++++@@@@@@@@@+++++.",
".+++++++@@@@@@@@@+++++.",
".+++++++++++++++++++++.",
".+++++++++++@+++++++++.",
".++++++++++@@@++++++++.",
".+++++++++@@@@@+++++++.",
".++++++++@@@+@@@++++++.",
".+++++++@@@+++@@@+++++.",
".+++++++@@+++++@@+++++.",
".+++++++++++++++++++++.",
".+++++++++++++++++++++.",
".+++++++++++++++++++++.",
".+++++++++++++++++++++.",
".+++++++++++++++++++++.",
"......................."};
