/* XPM */
static char * stick_pressed_31p_xpm[] = {
"31 31 4 1",
" 	c None",
".	c #000000",
"+	c #2d2a1e",
"@	c #f0e9d2",
"...............................",
".+++++++++++++++++++++++++++++.",
".+++++++++++++++++++++++++++++.",
".+++++++++++++++++++++++++++++.",
".+++++++++++++++++++++++++++++.",
".+++++++++++++++++++++++++++++.",
".+++++++++++++++++++++++++++++.",
".+++++++++++++++++++++++++++++.",
".+++++++++++++++++++++++++++++.",
".+++++++++++++++++++++++++++++.",
".+++++++++++++++++++++++++++++.",
".+++++++++++++++++++++++++++++.",
".+++++++++++++++++++++++++++++.",
".+++++++++++++++++++++++++++++.",
".+++++++++++++++++++++++++++++.",
".++++++++++++++@@@++++++++++++.",
".++++++++++++++@@@++++++++++++.",
".++++++++++++++@@@++++++++++++.",
".+++++++++++++++++++++++++++++.",
".+++++++++++++++++++++++++++++.",
".+++++++++++++++++++++++++++++.",
".+++++++++++++++++++++++++++++.",
".+++++++++++++++++++++++++++++.",
".+++++++++++++++++++++++++++++.",
".+++++++++++++++++++++++++++++.",
".+++++++++++++++++++++++++++++.",
".+++++++++++++++++++++++++++++.",
".+++++++++++++++++++++++++++++.",
".+++++++++++++++++++++++++++++.",
".+++++++++++++++++++++++++++++.",
"..............................."};
