/* XPM */
static char * close_active_27p_xpm[] = {
"27 27 7 1",
" 	c None",
".	c #000000",
"+	c #868b90",
"@	c #464b50",
"#	c #3c4146",
"$	c #060b10",
"%	c #eff0f1",
"...........................",
".++++++++++++++++++++++++@.",
".+#######################$.",
".+#######################$.",
".+#######################$.",
".+#######################$.",
".+#######################$.",
".+#######################$.",
".+######%%#######%%######$.",
".+######%%%#####%%%######$.",
".+#######%%%###%%%#######$.",
".+########%%%#%%%########$.",
".+#########%%%%%#########$.",
".+##########%%%##########$.",
".+#########%%%%%#########$.",
".+########%%%#%%%########$.",
".+#######%%%###%%%#######$.",
".+######%%%#####%%%######$.",
".+######%%#######%%######$.",
".+#######################$.",
".+#######################$.",
".+#######################$.",
".+#######################$.",
".+#######################$.",
".+#######################$.",
".@$$$$$$$$$$$$$$$$$$$$$$$$.",
"..........................."};
