/* XPM */
static char * shade_pressed_traditional_35p_xpm[] = {
"27 27 6 1",
" 	c None",
".	c #000000",
"+	c #b4b7b9",
"@	c #343739",
"#	c #f0ecdf",
"$	c #a8a7a2",
"..........................+",
".@@@@@@@@@@@@@@@@@@@@@@@@@+",
".@@@@@@@@@@@@@@@@@@@@@@@@@+",
".@@@@@@@@@@@@@@@@@@@@@@@@@+",
".@@@@@@@@@@@@@@@@@@@@@@@@@+",
".@@@@##################@@@+",
".@@@@##################@@@+",
".@@@@##################@@@+",
".@@@@@@@@@@@@@@@@@@@@@@@@@+",
".@@@@@@@@@@@@@@@@@@@@@@@@@+",
".@@@@@@@@@@@@@@@@@@@@@@@@@+",
".@@@@@@@@@@@@@@@@@@@@@@@@@+",
".@@@@@@@@@@@@$$@@@@@@@@@@@+",
".@@@@@@@@@@@$##$@@@@@@@@@@+",
".@@@@@@@@@@$####$@@@@@@@@@+",
".@@@@@@@@@$######$@@@@@@@@+",
".@@@@@@@@$###$$###$@@@@@@@+",
".@@@@@@@$###$@@$###$@@@@@@+",
".@@@@@@$###$@@@@$###$@@@@@+",
".@@@@@$###$@@@@@@$###$@@@@+",
".@@@@$###$@@@@@@@@$###$@@@+",
".@@@@###$@@@@@@@@@@$###@@@+",
".@@@@##$@@@@@@@@@@@@$##@@@+",
".@@@@@@@@@@@@@@@@@@@@@@@@@+",
".@@@@@@@@@@@@@@@@@@@@@@@@@+",
".@@@@@@@@@@@@@@@@@@@@@@@@@+",
"+++++++++++++++++++++++++++"};
