/* XPM */
static char * hide_pressed_traditional_31p_xpm[] = {
"23 23 5 1",
" 	c None",
".	c #000000",
"+	c #878a93",
"@	c #070a13",
"#	c #ffffff",
"......................+",
".@@@@@@@@@@@@@@@@@@@@@+",
".@@@@@@@@@@@@@@@@@@@@@+",
".@@@@@@@@@@@@@@@@@@@@@+",
".@@@@@@@@@@@@@@@@@@@@@+",
".@@@@@@@@@@@@@@@@@@@@@+",
".@@@@@@@@@@@@@@@@@@@@@+",
".@@@@@@@@@@@@@@@@@@@@@+",
".@@@@@@@@@@@@@@@@@@@@@+",
".@@@@##@@@@@@@@@@##@@@+",
".@@@@###@@@@@@@@###@@@+",
".@@@@@###@@@@@@###@@@@+",
".@@@@@@###@@@@###@@@@@+",
".@@@@@@@###@@###@@@@@@+",
".@@@@@@@@######@@@@@@@+",
".@@@@@@@@@####@@@@@@@@+",
".@@@@@@@@@@##@@@@@@@@@+",
".@@@@@@@@@@@@@@@@@@@@@+",
".@@@@@@@@@@@@@@@@@@@@@+",
".@@@@@@@@@@@@@@@@@@@@@+",
".@@@@@@@@@@@@@@@@@@@@@+",
".@@@@@@@@@@@@@@@@@@@@@+",
"+++++++++++++++++++++++"};
