/* XPM */
static char * menu_pressed_traditional_19p_xpm[] = {
"11 11 6 1",
" 	c None",
".	c #000000",
"+	c #8b8b8b",
"@	c #0b0b0b",
"#	c #c8c8c8",
"$	c #7f7f7f",
"..........+",
".@@@@@@@@@+",
".@@@@@@@@@+",
".@@######@+",
".@@@@@@@@@+",
".@@$$$$$$@+",
".@@$$$$$$@+",
".@@@@@@@@@+",
".@@######@+",
".@@@@@@@@@+",
"+++++++++++"};
