/* XPM */
static char * stick_active_traditional_19p_xpm[] = {
"11 11 6 1",
" 	c None",
".	c #8b8b8b",
"+	c #000000",
"@	c #363636",
"#	c #000000",
"$	c #7f7f7f",
"..........+",
".@@@@@@@@#+",
".@@@@@@@@#+",
".@@@@@@@@#+",
".@@@$$@@@#+",
".@@@$$@@@#+",
".@@@@@@@@#+",
".@@@@@@@@#+",
".@@@@@@@@#+",
".#########+",
"+++++++++++"};
