/* XPM */
static char * title_4_active_31p_traditional_xpm[] = {
"3 31 5 1",
" 	c None",
".	c #000000",
"+	c #fd5585",
"@	c #a80030",
"#	c #7d0005",
"...",
"+++",
"@@@",
"@@@",
"@@@",
"@@@",
"@@@",
"@@@",
"@@@",
"@@@",
"@@@",
"@@@",
"@@@",
"@@@",
"@@@",
"@@@",
"@@@",
"@@@",
"@@@",
"@@@",
"@@@",
"@@@",
"@@@",
"@@@",
"@@@",
"@@@",
"@@@",
"@@@",
"@@@",
"###",
"..."};
