/* XPM */
static char * stick_pressed_traditional_35p_xpm[] = {
"27 27 6 1",
" 	c None",
".	c #000000",
"+	c #868b90",
"@	c #060b10",
"#	c #909396",
"$	c #eff0f1",
"..........................+",
".@@@@@@@@@@@@@@@@@@@@@@@@@+",
".@@@@@@@@@@@@@@@@@@@@@@@@@+",
".@@@@@@@@@@@@@@@@@@@@@@@@@+",
".@@@@@@@@@@@@@@@@@@@@@@@@@+",
".@@@@@@@@@@@@@@@@@@@@@@@@@+",
".@@@@@@@@@@@@@@@@@@@@@@@@@+",
".@@@@@@@@@@@@@@@@@@@@@@@@@+",
".@@@@@@@@@@@@@@@@@@@@@@@@@+",
".@@@@@@@@@@@@@@@@@@@@@@@@@+",
".@@@@@@@@@@@@@@@@@@@@@@@@@+",
".@@@@@@@@@@@@@@@@@@@@@@@@@+",
".@@@@@@@@@@@####@@@@@@@@@@+",
".@@@@@@@@@@@#$$#@@@@@@@@@@+",
".@@@@@@@@@@@#$$#@@@@@@@@@@+",
".@@@@@@@@@@@####@@@@@@@@@@+",
".@@@@@@@@@@@@@@@@@@@@@@@@@+",
".@@@@@@@@@@@@@@@@@@@@@@@@@+",
".@@@@@@@@@@@@@@@@@@@@@@@@@+",
".@@@@@@@@@@@@@@@@@@@@@@@@@+",
".@@@@@@@@@@@@@@@@@@@@@@@@@+",
".@@@@@@@@@@@@@@@@@@@@@@@@@+",
".@@@@@@@@@@@@@@@@@@@@@@@@@+",
".@@@@@@@@@@@@@@@@@@@@@@@@@+",
".@@@@@@@@@@@@@@@@@@@@@@@@@+",
".@@@@@@@@@@@@@@@@@@@@@@@@@+",
"+++++++++++++++++++++++++++"};
