/* XPM */
static char * menu_pressed_traditional_27p_xpm[] = {
"19 19 6 1",
" 	c None",
".	c #000000",
"+	c #ffffff",
"@	c #837f83",
"#	c #808180",
"$	c #000000",
"..................+",
".@@@@@@@@@@@@@@@@@+",
".@@@@@@@@@@@@@@@@#+",
".@@@@@@@@@@@@@@@@#+",
".@@@$$$$$$$$$$$$@#+",
".@@@$$$$$$$$$$$$@#+",
".@@@@@@@@@@@@@@@@#+",
".@@@@@@@@@@@@@@@@#+",
".@@@@@@@@@@@@@@@@#+",
".@@@$$$$$$$$$$$$@#+",
".@@@$$$$$$$$$$$$@#+",
".@@@@@@@@@@@@@@@@#+",
".@@@@@@@@@@@@@@@@#+",
".@@@@@@@@@@@@@@@@#+",
".@@@$$$$$$$$$$$$@#+",
".@@@$$$$$$$$$$$$@#+",
".@@@@@@@@@@@@@@@@#+",
".@@@@@@@@@@@@@@@@#+",
"+++++++++++++++++++"};
