/* XPM */
static char * close_pressed_traditional_19p_xpm[] = {
"11 11 6 1",
" 	c None",
".	c #414141",
"+	c #f1f1f1",
"@	c #616161",
"#	c #111111",
"$	c #494949",
"..........+",
".@@@@@@@@@+",
".@@@@@@@@@+",
".@@#$@@$#@+",
".@@$#$$#$@+",
".@@@$##$@@+",
".@@@$##$@@+",
".@@$#$$#$@+",
".@@#$@@$#@+",
".@@@@@@@@@+",
"+++++++++++"};
