/* XPM */
static char * close_pressed_traditional_23p_xpm[] = {
"15 15 6 1",
" 	c None",
".	c #414141",
"+	c #f1f1f1",
"@	c #616161",
"#	c #494949",
"$	c #111111",
"..............+",
".@@@@@@@@@@@@@+",
".@@@@@@@@@@@@@+",
".@@##@@@@@@##@+",
".@@#$#@@@@#$#@+",
".@@@#$#@@#$#@@+",
".@@@@#$##$#@@@+",
".@@@@@#$$#@@@@+",
".@@@@@#$$#@@@@+",
".@@@@#$##$#@@@+",
".@@@#$#@@#$#@@+",
".@@#$#@@@@#$#@+",
".@@##@@@@@@##@+",
".@@@@@@@@@@@@@+",
"+++++++++++++++"};
