/* XPM */
static char * maximize_toggled_pressed_23p_xpm[] = {
"23 23 4 1",
" 	c None",
".	c #004000",
"+	c #006000",
"@	c #e0ffe0",
".......................",
".+++++++++++++++++++++.",
".+++++++++++++++++++++.",
".+++++++++++++++++++++.",
".+++++++++++++++++++++.",
".+++++++++++++++++++++.",
".+++++++++++++++++++++.",
".+++++++++++@+++++++++.",
".++++++++++@@@++++++++.",
".+++++++++@@@@@+++++++.",
".++++++++@@@+@@@++++++.",
".+++++++@@@+++@@@+++++.",
".++++++@@@+++++@@@++++.",
".+++++++@@@+++@@@+++++.",
".++++++++@@@+@@@++++++.",
".+++++++++@@@@@+++++++.",
".++++++++++@@@++++++++.",
".+++++++++++@+++++++++.",
".+++++++++++++++++++++.",
".+++++++++++++++++++++.",
".+++++++++++++++++++++.",
".+++++++++++++++++++++.",
"......................."};
