/* XPM */
static char * menu_active_traditional_19p_xpm[] = {
"11 11 7 1",
" 	c None",
".	c #f1f1f1",
"+	c #414141",
"@	c #818181",
"#	c #515151",
"$	c #111111",
"%	c #494949",
"..........+",
".@@@@@@@@#+",
".@$$$$$$@#+",
".@@@@@@@@#+",
".@%%%%%%@#+",
".@%%%%%%@#+",
".@@@@@@@@#+",
".@$$$$$$@#+",
".@@@@@@@@#+",
".#########+",
"+++++++++++"};
