/* XPM */
static char * top_left_inactive_traditional_31p_xpm[] = {
"4 31 5 1",
" 	c #400000",
".	c #ff8080",
"+	c #800000",
"@	c #ff8080",
"#	c #500000",
"    ",
" ...",
" .++",
" .++",
" .++",
" .++",
" .++",
" .++",
" .++",
" .++",
" .++",
" .++",
" .++",
" .++",
" .++",
" .++",
" .++",
" .++",
" .++",
" .++",
" .++",
" .++",
" .++",
" .++",
" .++",
" .++",
" .++",
" .++",
" .++",
" @##",
"    "};
