/* XPM */
static char * maximize_toggled_active_traditional_19p_xpm[] = {
"11 11 7 1",
" 	c None",
".	c #a7adb8",
"+	c #000000",
"@	c #5d636e",
"#	c #929baa",
"$	c #00030e",
"%	c #d2def0",
"..........+",
".@@@##@@@$+",
".@@#%%#@@$+",
".@#%##%#@$+",
".#%#@@#%#$+",
".#%#@@#%#$+",
".@#%##%#@$+",
".@@#%%#@@$+",
".@@@##@@@$+",
".$$$$$$$$$+",
"+++++++++++"};
