/* XPM */
static char * title_2_active_traditional_19p_xpm[] = {
"3 19 5 1",
" 	c None",
".	c #000000",
"+	c #dfecfb",
"@	c #8a97a6",
"#	c #5f6c7b",
"...",
"+++",
"@@@",
"@@@",
"@@@",
"@@@",
"@@@",
"@@@",
"@@@",
"@@@",
"@@@",
"@@@",
"@@@",
"@@@",
"@@@",
"@@@",
"@@@",
"###",
"..."};
