/* XPM */
static char * shade_active_traditional_31p_xpm[] = {
"23 23 6 1",
" 	c None",
".	c #ffffff",
"+	c #292929",
"@	c #dedede",
"#	c #7e7e7e",
"$	c #000000",
"......................+",
".@@@@@@@@@@@@@@@@@@@@#+",
".@@@@@@@@@@@@@@@@@@@@#+",
".@@@@@@@@@@@@@@@@@@@@#+",
".@@@$$$$$$$$$$$$$$@@@#+",
".@@@$$$$$$$$$$$$$$@@@#+",
".@@@@@@@@@@@@@@@@@@@@#+",
".@@@@@@@@@@@@@@@@@@@@#+",
".@@@@@@@@@@@@@@@@@@@@#+",
".@@@@@@@@@@@@@@@@@@@@#+",
".@@@@@@@@@$$@@@@@@@@@#+",
".@@@@@@@@$$$$@@@@@@@@#+",
".@@@@@@@$$$$$$@@@@@@@#+",
".@@@@@@$$$@@$$$@@@@@@#+",
".@@@@@$$$@@@@$$$@@@@@#+",
".@@@@$$$@@@@@@$$$@@@@#+",
".@@@$$$@@@@@@@@$$$@@@#+",
".@@@$$@@@@@@@@@@$$@@@#+",
".@@@@@@@@@@@@@@@@@@@@#+",
".@@@@@@@@@@@@@@@@@@@@#+",
".@@@@@@@@@@@@@@@@@@@@#+",
".#####################+",
"+++++++++++++++++++++++"};
