<?xml version="1.0" encoding="UTF-8" standalone="no"?>
<svg
   xmlns:dc="http://purl.org/dc/elements/1.1/"
   xmlns:cc="http://creativecommons.org/ns#"
   xmlns:rdf="http://www.w3.org/1999/02/22-rdf-syntax-ns#"
   xmlns:svg="http://www.w3.org/2000/svg"
   xmlns="http://www.w3.org/2000/svg"
   xmlns:sodipodi="http://sodipodi.sourceforge.net/DTD/sodipodi-0.dtd"
   xmlns:inkscape="http://www.inkscape.org/namespaces/inkscape"
   width="32"
   version="1.0"
   height="32.000431"
   id="svg1406"
   sodipodi:docname="suspend.svg"
   inkscape:version="0.92.1 r15371">
  <sodipodi:namedview
     fit-margin-bottom="0"
     fit-margin-right="0"
     fit-margin-left="0"
     fit-margin-top="0"
     inkscape:snap-nodes="true"
     inkscape:bbox-nodes="true"
     inkscape:snap-bbox="true"
     pagecolor="#c080c0"
     bordercolor="#666666"
     borderopacity="1"
     objecttolerance="10"
     gridtolerance="10"
     guidetolerance="10"
     inkscape:pageopacity="0"
     inkscape:pageshadow="2"
     inkscape:window-width="1867"
     inkscape:window-height="1054"
     id="namedview1408"
     showgrid="true"
     inkscape:window-x="0"
     inkscape:window-y="0"
     inkscape:window-maximized="1"
     inkscape:current-layer="g4679">
    <inkscape:grid
       type="xygrid"
       id="grid2217"
       spacingx="1"
       spacingy="1"
       empspacing="5"
       originx="-70"
       originy="-1188" />
  </sodipodi:namedview>
  <metadata
     id="metadata1410">
    <rdf:RDF>
      <cc:Work
         rdf:about="">
        <dc:format>image/svg+xml</dc:format>
        <dc:type
           rdf:resource="http://purl.org/dc/dcmitype/StillImage" />
        <dc:title></dc:title>
      </cc:Work>
    </rdf:RDF>
  </metadata>
  <defs
     id="defs312" />
  <g
     id="g4679"
     transform="translate(-5,-3.0000001)">
    <g
       transform="translate(-63,0.99999975)"
       style="opacity:1;fill:#e1e1e4;fill-opacity:1"
       id="g4681">
      <path
         inkscape:connector-curvature="0"
         style="opacity:1;vector-effect:none;fill:#e1e1e4;fill-opacity:1;stroke:none;stroke-width:0.5;stroke-linecap:square;stroke-linejoin:miter;stroke-miterlimit:4;stroke-dasharray:none;stroke-dashoffset:0;stroke-opacity:1;marker:none"
         d="m 85,4.0004312 a 15,15 0 0 0 -15,14.9999998 15,15 0 0 0 15,15 15,15 0 0 0 15,-15 A 15,15 0 0 0 85,4.0004312 Z m 0,3 a 12,12 0 0 1 12,11.9999998 12,12 0 0 1 -12,12 12,12 0 0 1 -12,-12 12,12 0 0 1 12,-11.9999998 z"
         id="path4675" />
      <rect
         style="opacity:1;vector-effect:none;fill:#e1e1e4;fill-opacity:1;stroke:none;stroke-width:0.47434163;stroke-linecap:square;stroke-linejoin:miter;stroke-miterlimit:4;stroke-dasharray:none;stroke-dashoffset:0;stroke-opacity:1;marker:none"
         id="rect4677"
         width="3"
         height="18"
         x="80.5"
         y="10.000431" />
      <rect
         style="opacity:1;vector-effect:none;fill:#e1e1e4;fill-opacity:1;stroke:none;stroke-width:0.47434163;stroke-linecap:square;stroke-linejoin:miter;stroke-miterlimit:4;stroke-dasharray:none;stroke-dashoffset:0;stroke-opacity:1;marker:none"
         id="rect4679"
         width="3"
         height="18"
         x="86.5"
         y="10.000431" />
    </g>
    <g
       id="g4665"
       style="opacity:1;fill:#37373a;fill-opacity:1"
       transform="translate(-65,-1.0000001)">
      <path
         id="path4659"
         d="m 85,4.0004312 a 15,15 0 0 0 -15,14.9999998 15,15 0 0 0 15,15 15,15 0 0 0 15,-15 A 15,15 0 0 0 85,4.0004312 Z m 0,3 a 12,12 0 0 1 12,11.9999998 12,12 0 0 1 -12,12 12,12 0 0 1 -12,-12 12,12 0 0 1 12,-11.9999998 z"
         style="opacity:1;vector-effect:none;fill:#37373a;fill-opacity:1;stroke:none;stroke-width:0.5;stroke-linecap:square;stroke-linejoin:miter;stroke-miterlimit:4;stroke-dasharray:none;stroke-dashoffset:0;stroke-opacity:1;marker:none"
         inkscape:connector-curvature="0" />
      <rect
         y="10.000431"
         x="80.5"
         height="18"
         width="3"
         id="rect4661"
         style="opacity:1;vector-effect:none;fill:#37373a;fill-opacity:1;stroke:none;stroke-width:0.47434163;stroke-linecap:square;stroke-linejoin:miter;stroke-miterlimit:4;stroke-dasharray:none;stroke-dashoffset:0;stroke-opacity:1;marker:none" />
      <rect
         y="10.000431"
         x="86.5"
         height="18"
         width="3"
         id="rect4663"
         style="opacity:1;vector-effect:none;fill:#37373a;fill-opacity:1;stroke:none;stroke-width:0.47434163;stroke-linecap:square;stroke-linejoin:miter;stroke-miterlimit:4;stroke-dasharray:none;stroke-dashoffset:0;stroke-opacity:1;marker:none" />
    </g>
    <g
       style="opacity:1;fill:#8c8c8f;fill-opacity:1"
       id="g4649"
       transform="translate(-64)">
      <path
         inkscape:connector-curvature="0"
         style="opacity:1;vector-effect:none;fill:#8c8c8f;fill-opacity:1;stroke:none;stroke-width:0.5;stroke-linecap:square;stroke-linejoin:miter;stroke-miterlimit:4;stroke-dasharray:none;stroke-dashoffset:0;stroke-opacity:1;marker:none"
         d="m 85,4.0004312 a 15,15 0 0 0 -15,14.9999998 15,15 0 0 0 15,15 15,15 0 0 0 15,-15 A 15,15 0 0 0 85,4.0004312 Z m 0,3 a 12,12 0 0 1 12,11.9999998 12,12 0 0 1 -12,12 12,12 0 0 1 -12,-12 12,12 0 0 1 12,-11.9999998 z"
         id="path4643" />
      <rect
         style="opacity:1;vector-effect:none;fill:#8c8c8f;fill-opacity:1;stroke:none;stroke-width:0.47434163;stroke-linecap:square;stroke-linejoin:miter;stroke-miterlimit:4;stroke-dasharray:none;stroke-dashoffset:0;stroke-opacity:1;marker:none"
         id="rect4645"
         width="3"
         height="18"
         x="80.5"
         y="10.000431" />
      <rect
         style="opacity:1;vector-effect:none;fill:#8c8c8f;fill-opacity:1;stroke:none;stroke-width:0.47434163;stroke-linecap:square;stroke-linejoin:miter;stroke-miterlimit:4;stroke-dasharray:none;stroke-dashoffset:0;stroke-opacity:1;marker:none"
         id="rect4647"
         width="3"
         height="18"
         x="86.5"
         y="10.000431" />
    </g>
    <g
       id="g4633"
       style="opacity:0.5;fill:#000000;fill-opacity:1"
       transform="translate(-64)">
      <path
         id="path4525-6"
         d="m 85,4.0004312 a 15,15 0 0 0 -15,14.9999998 15,15 0 0 0 15,15 15,15 0 0 0 15,-15 A 15,15 0 0 0 85,4.0004312 Z m 0,3 a 12,12 0 0 1 12,11.9999998 12,12 0 0 1 -12,12 12,12 0 0 1 -12,-12 12,12 0 0 1 12,-11.9999998 z"
         style="opacity:1;vector-effect:none;fill:#000000;fill-opacity:1;stroke:none;stroke-width:0.5;stroke-linecap:square;stroke-linejoin:miter;stroke-miterlimit:4;stroke-dasharray:none;stroke-dashoffset:0;stroke-opacity:1;marker:none"
         inkscape:connector-curvature="0" />
      <rect
         y="10.000431"
         x="80.5"
         height="18"
         width="3"
         id="rect4566-7"
         style="opacity:1;vector-effect:none;fill:#000000;fill-opacity:1;stroke:none;stroke-width:0.47434163;stroke-linecap:square;stroke-linejoin:miter;stroke-miterlimit:4;stroke-dasharray:none;stroke-dashoffset:0;stroke-opacity:1;marker:none" />
      <rect
         y="10.000431"
         x="86.5"
         height="18"
         width="3"
         id="rect4566-5"
         style="opacity:1;vector-effect:none;fill:#000000;fill-opacity:1;stroke:none;stroke-width:0.47434163;stroke-linecap:square;stroke-linejoin:miter;stroke-miterlimit:4;stroke-dasharray:none;stroke-dashoffset:0;stroke-opacity:1;marker:none" />
    </g>
  </g>
</svg>
