/* XPM */
static char * top_right_active_traditional_19p_xpm[] = {
"4 19 6 1",
" 	c None",
".	c #390000",
"+	c #ffff55",
"@	c #dcbf2b",
"#	c #e3aa00",
"$	c #b87f00",
"....",
"++@.",
"##$.",
"##$.",
"##$.",
"##$.",
"##$.",
"##$.",
"##$.",
"##$.",
"##$.",
"##$.",
"##$.",
"##$.",
"##$.",
"##$.",
"##$.",
"$$$.",
"...."};
