/* XPM */
static char * title_2_active_traditional_35p_xpm[] = {
"3 35 5 1",
" 	c None",
".	c #004400",
"+	c #55ff88",
"@	c #00ee33",
"#	c #00c308",
"...",
"+++",
"@@@",
"@@@",
"@@@",
"@@@",
"@@@",
"@@@",
"@@@",
"@@@",
"@@@",
"@@@",
"@@@",
"@@@",
"@@@",
"@@@",
"@@@",
"@@@",
"@@@",
"@@@",
"@@@",
"@@@",
"@@@",
"@@@",
"@@@",
"@@@",
"@@@",
"@@@",
"@@@",
"@@@",
"@@@",
"@@@",
"@@@",
"###",
"..."};
