/* XPM */
static char * maximize_toggled_active_27p_xpm[] = {
"27 27 7 1",
" 	c None",
".	c #000000",
"+	c #8c8b89",
"@	c #4c4b49",
"#	c #42413f",
"$	c #0c0b09",
"%	c #ffffff",
"...........................",
".++++++++++++++++++++++++@.",
".+#######################$.",
".+#######################$.",
".+#######################$.",
".+#######################$.",
".+#######################$.",
".+###########%###########$.",
".+##########%%%##########$.",
".+#########%%%%%#########$.",
".+########%%%#%%%########$.",
".+#######%%%###%%%#######$.",
".+######%%%#####%%%######$.",
".+#####%%%#######%%%#####$.",
".+######%%%#####%%%######$.",
".+#######%%%###%%%#######$.",
".+########%%%#%%%########$.",
".+#########%%%%%#########$.",
".+##########%%%##########$.",
".+###########%###########$.",
".+#######################$.",
".+#######################$.",
".+#######################$.",
".+#######################$.",
".+#######################$.",
".@$$$$$$$$$$$$$$$$$$$$$$$$.",
"..........................."};
