/* XPM */
static char * hide_active_traditional_19p_xpm[] = {
"11 11 7 1",
" 	c None",
".	c #b4b7b9",
"+	c #000000",
"@	c #5f6264",
"#	c #0a0d0f",
"$	c #f0ecdf",
"%	c #a8a7a2",
"..........+",
".@@@@@@@@#+",
".@@@@@@@@#+",
".@$%@@%$@#+",
".@%$%%$%@#+",
".@@%$$%@@#+",
".@@@%%@@@#+",
".@@@@@@@@#+",
".@@@@@@@@#+",
".#########+",
"+++++++++++"};
