/* XPM */
static char * menu_pressed_traditional_31p_xpm[] = {
"23 23 5 1",
" 	c None",
".	c #10130d",
"+	c #ffffff",
"@	c #8f928c",
"#	c #000000",
"......................+",
".@@@@@@@@@@@@@@@@@@@@@+",
".@@@@@@@@@@@@@@@@@@@@@+",
".@@@@@@@@@@@@@@@@@@@@@+",
".@@@@@@@@@@@@@@@@@@@@@+",
".@@@@##############@@@+",
".@@@@##############@@@+",
".@@@@@@@@@@@@@@@@@@@@@+",
".@@@@@@@@@@@@@@@@@@@@@+",
".@@@@@@@@@@@@@@@@@@@@@+",
".@@@@@@@@@@@@@@@@@@@@@+",
".@@@@##############@@@+",
".@@@@##############@@@+",
".@@@@@@@@@@@@@@@@@@@@@+",
".@@@@@@@@@@@@@@@@@@@@@+",
".@@@@@@@@@@@@@@@@@@@@@+",
".@@@@@@@@@@@@@@@@@@@@@+",
".@@@@##############@@@+",
".@@@@##############@@@+",
".@@@@@@@@@@@@@@@@@@@@@+",
".@@@@@@@@@@@@@@@@@@@@@+",
".@@@@@@@@@@@@@@@@@@@@@+",
"+++++++++++++++++++++++"};
