/* XPM */
static char * stick_pressed_31p_xpm[] = {
"31 31 4 1",
" 	c None",
".	c #040004",
"+	c #837f83",
"@	c #000000",
"...............................",
".+++++++++++++++++++++++++++++.",
".+++++++++++++++++++++++++++++.",
".+++++++++++++++++++++++++++++.",
".+++++++++++++++++++++++++++++.",
".+++++++++++++++++++++++++++++.",
".+++++++++++++++++++++++++++++.",
".+++++++++++++++++++++++++++++.",
".+++++++++++++++++++++++++++++.",
".+++++++++++++++++++++++++++++.",
".+++++++++++++++++++++++++++++.",
".+++++++++++++++++++++++++++++.",
".+++++++++++++++++++++++++++++.",
".+++++++++++++++++++++++++++++.",
".+++++++++++++++++++++++++++++.",
".++++++++++++++@@@++++++++++++.",
".++++++++++++++@@@++++++++++++.",
".++++++++++++++@@@++++++++++++.",
".+++++++++++++++++++++++++++++.",
".+++++++++++++++++++++++++++++.",
".+++++++++++++++++++++++++++++.",
".+++++++++++++++++++++++++++++.",
".+++++++++++++++++++++++++++++.",
".+++++++++++++++++++++++++++++.",
".+++++++++++++++++++++++++++++.",
".+++++++++++++++++++++++++++++.",
".+++++++++++++++++++++++++++++.",
".+++++++++++++++++++++++++++++.",
".+++++++++++++++++++++++++++++.",
".+++++++++++++++++++++++++++++.",
"..............................."};
