/* XPM */
static char * close_active_traditional_27p_xpm[] = {
"19 19 6 1",
" 	c None",
".	c #ffffff",
"+	c #3e3e3e",
"@	c #e8e8e8",
"#	c #939393",
"$	c #363636",
"..................+",
".@@@@@@@@@@@@@@@@#+",
".@@@@@@@@@@@@@@@@#+",
".@@$$@@@@@@@@$$@@#+",
".@@$$$@@@@@@$$$@@#+",
".@@@$$$@@@@$$$@@@#+",
".@@@@$$$@@$$$@@@@#+",
".@@@@@$$$$$$@@@@@#+",
".@@@@@@$$$$@@@@@@#+",
".@@@@@@$$$$@@@@@@#+",
".@@@@@$$$$$$@@@@@#+",
".@@@@$$$@@$$$@@@@#+",
".@@@$$$@@@@$$$@@@#+",
".@@$$$@@@@@@$$$@@#+",
".@@$$@@@@@@@@$$@@#+",
".@@@@@@@@@@@@@@@@#+",
".@@@@@@@@@@@@@@@@#+",
".#################+",
"+++++++++++++++++++"};
