/* XPM */
static char * menu_active_traditional_27p_xpm[] = {
"19 19 7 1",
" 	c None",
".	c #ffffff",
"+	c #3e3e3e",
"@	c #f3f3f3",
"#	c #808180",
"$	c #939393",
"%	c #363636",
"..................+",
".@@@@@@@@@@@@@@@#$+",
".@@@@@@@@@@@@@@@#$+",
".@@%%%%%%%%%%%%@#$+",
".@@%%%%%%%%%%%%@#$+",
".@@@@@@@@@@@@@@@#$+",
".@@@@@@@@@@@@@@@#$+",
".@@@@@@@@@@@@@@@#$+",
".@@%%%%%%%%%%%%@#$+",
".@@%%%%%%%%%%%%@#$+",
".@@@@@@@@@@@@@@@#$+",
".@@@@@@@@@@@@@@@#$+",
".@@@@@@@@@@@@@@@#$+",
".@@%%%%%%%%%%%%@#$+",
".@@%%%%%%%%%%%%@#$+",
".@@@@@@@@@@@@@@@#$+",
".@@@@@@@@@@@@@@@#$+",
".$$$$$$$$$$$$$$$$$+",
"+++++++++++++++++++"};
