/* XPM */
static char * shade_active_traditional_27p_xpm[] = {
"19 19 6 1",
" 	c None",
".	c #ffffff",
"+	c #2a261e",
"@	c #d4d0c8",
"#	c #7f7b73",
"$	c #000000",
"..................+",
".@@@@@@@@@@@@@@@@#+",
".@@@@@@@@@@@@@@@@#+",
".@@$$$$$$$$$$$$@@#+",
".@@$$$$$$$$$$$$@@#+",
".@@@@@@@@@@@@@@@@#+",
".@@@@@@@@@@@@@@@@#+",
".@@@@@@@@@@@@@@@@#+",
".@@@@@@@$$@@@@@@@#+",
".@@@@@@$$$$@@@@@@#+",
".@@@@@$$$$$$@@@@@#+",
".@@@@$$$@@$$$@@@@#+",
".@@@$$$@@@@$$$@@@#+",
".@@$$$@@@@@@$$$@@#+",
".@@$$@@@@@@@@$$@@#+",
".@@@@@@@@@@@@@@@@#+",
".@@@@@@@@@@@@@@@@#+",
".#################+",
"+++++++++++++++++++"};
