/* XPM */
static char * shade_pressed_19p_xpm[] = {
"19 19 4 1",
" 	c None",
".	c #000000",
"+	c #000000",
"@	c #ffffff",
"...................",
".+++++++++++++++++.",
".+++++++++++++++++.",
".+++++++++++++++++.",
".+++++++++++++++++.",
".+++++++++++++++++.",
".+++++++++++++++++.",
".++++++@@@@@@@++++.",
".++++++@+@+@+@++++.",
".+++++++++@+++++++.",
".++++++++@@@++++++.",
".+++++++@@@@@+++++.",
".++++++@@@+@@@++++.",
".++++++@@+++@@++++.",
".+++++++++++++++++.",
".+++++++++++++++++.",
".+++++++++++++++++.",
".+++++++++++++++++.",
"..................."};
