/* XPM */
static char * menu_active_traditional_35p_xpm[] = {
"27 27 7 1",
" 	c None",
".	c #868b90",
"+	c #000000",
"@	c #3c4146",
"#	c #000000",
"$	c #dbe0e5",
"%	c #868b90",
"..........................+",
".@@@@@@@@@@@@@@@@@@@@@@@@#+",
".@@@@@@@@@@@@@@@@@@@@@@@@#+",
".@@@@@@@@@@@@@@@@@@@@@@@@#+",
".@@@$$$$$$$$$$$$$$$$$$@@@#+",
".@@@$$$$$$$$$$$$$$$$$$@@@#+",
".@@@$$$$$$$$$$$$$$$$$$@@@#+",
".@@@@@@@@@@@@@@@@@@@@@@@@#+",
".@@@@@@@@@@@@@@@@@@@@@@@@#+",
".@@@@@@@@@@@@@@@@@@@@@@@@#+",
".@@@@@@@@@@@@@@@@@@@@@@@@#+",
".@@@%%%%%%%%%%%%%%%%%%@@@#+",
".@@@$$$$$$$$$$$$$$$$$$@@@#+",
".@@@$$$$$$$$$$$$$$$$$$@@@#+",
".@@@%%%%%%%%%%%%%%%%%%@@@#+",
".@@@@@@@@@@@@@@@@@@@@@@@@#+",
".@@@@@@@@@@@@@@@@@@@@@@@@#+",
".@@@@@@@@@@@@@@@@@@@@@@@@#+",
".@@@@@@@@@@@@@@@@@@@@@@@@#+",
".@@@$$$$$$$$$$$$$$$$$$@@@#+",
".@@@$$$$$$$$$$$$$$$$$$@@@#+",
".@@@$$$$$$$$$$$$$$$$$$@@@#+",
".@@@@@@@@@@@@@@@@@@@@@@@@#+",
".@@@@@@@@@@@@@@@@@@@@@@@@#+",
".@@@@@@@@@@@@@@@@@@@@@@@@#+",
".#########################+",
"+++++++++++++++++++++++++++"};
