/* XPM */
static char * maximize_active_23p_xpm[] = {
"23 23 7 1",
" 	c None",
".	c #000000",
"+	c #b3b7b9",
"@	c #737779",
"#	c #696d6f",
"$	c #333739",
"%	c #f0ebdf",
".......................",
".++++++++++++++++++++@.",
".+###################$.",
".+###################$.",
".+###################$.",
".+###################$.",
".+###################$.",
".+###################$.",
".+#########%#########$.",
".+########%%%########$.",
".+#######%%%%%#######$.",
".+######%%%#%%%######$.",
".+#####%%%###%%%#####$.",
".+#####%%#####%%#####$.",
".+###################$.",
".+###################$.",
".+###################$.",
".+###################$.",
".+###################$.",
".+###################$.",
".+###################$.",
".@$$$$$$$$$$$$$$$$$$$$.",
"......................."};
