/* XPM */
static char * top_right_active_traditional_31p_xpm[] = {
"4 31 5 1",
" 	c #000000",
".	c #b3b7b9",
"+	c #737779",
"@	c #5e6264",
"#	c #333739",
"    ",
"..+ ",
"@@# ",
"@@# ",
"@@# ",
"@@# ",
"@@# ",
"@@# ",
"@@# ",
"@@# ",
"@@# ",
"@@# ",
"@@# ",
"@@# ",
"@@# ",
"@@# ",
"@@# ",
"@@# ",
"@@# ",
"@@# ",
"@@# ",
"@@# ",
"@@# ",
"@@# ",
"@@# ",
"@@# ",
"@@# ",
"@@# ",
"@@# ",
"### ",
"    "};
