/* XPM */
static char * hide_active_traditional_27p_xpm[] = {
"19 19 6 1",
" 	c None",
".	c #ffffff",
"+	c #000000",
"@	c #aeaaae",
"#	c #515551",
"$	c #000000",
"..................+",
".@@@@@@@@@@@@@@@@#+",
".@@@@@@@@@@@@@@@@#+",
".@@@@@@@@@@@@@@@@#+",
".@@@@@@@@@@@@@@@@#+",
".@@@@@@@@@@@@@@@@#+",
".@@$$@@@@@@@@$$@@#+",
".@@$$$@@@@@@$$$@@#+",
".@@@$$$@@@@$$$@@@#+",
".@@@@$$$@@$$$@@@@#+",
".@@@@@$$$$$$@@@@@#+",
".@@@@@@$$$$@@@@@@#+",
".@@@@@@@$$@@@@@@@#+",
".@@@@@@@@@@@@@@@@#+",
".@@@@@@@@@@@@@@@@#+",
".@@@@@@@@@@@@@@@@#+",
".@@@@@@@@@@@@@@@@#+",
".#################+",
"+++++++++++++++++++"};
