/* XPM */
static char * maximize_toggled_active_19p_xpm[] = {
"19 19 7 1",
" 	c None",
".	c #000000",
"+	c #b1b1d4",
"@	c #717194",
"#	c #67678a",
"$	c #313154",
"%	c #ffffff",
"...................",
".++++++++++++++++@.",
".+###############$.",
".+###############$.",
".+###############$.",
".+#######%#######$.",
".+######%%%######$.",
".+#####%%%%%#####$.",
".+####%%%#%%%####$.",
".+###%%%###%%%###$.",
".+####%%%#%%%####$.",
".+#####%%%%%#####$.",
".+######%%%######$.",
".+#######%#######$.",
".+###############$.",
".+###############$.",
".+###############$.",
".@$$$$$$$$$$$$$$$$.",
"..................."};
