/* XPM */
static char * shade_active_traditional_23p_xpm[] = {
"15 15 7 1",
" 	c None",
".	c #ffffff",
"+	c #000000",
"@	c #b9b5b9",
"#	c #515551",
"$	c #575557",
"%	c #000000",
"..............+",
".@@@@@@@@@@@@#+",
".@$$$$$$$$$$@#+",
".@$%%%%%%%%$@#+",
".@@@@@@@@@@@@#+",
".@@@@@@@@@@@@#+",
".@@@@@$$@@@@@#+",
".@@@@$%%$@@@@#+",
".@@@$%$$%$@@@#+",
".@@$%$@@$%$@@#+",
".@$%$@@@@$%$@#+",
".@$$@@@@@@$$@#+",
".@@@@@@@@@@@@#+",
".#############+",
"+++++++++++++++"};
