/* XPM */
static char * title_2_active_23p_traditional_xpm[] = {
"3 23 5 1",
" 	c None",
".	c #00001a",
"+	c #5df8ff",
"@	c #08a3c4",
"#	c #007899",
"...",
"+++",
"@@@",
"@@@",
"@@@",
"@@@",
"@@@",
"@@@",
"@@@",
"@@@",
"@@@",
"@@@",
"@@@",
"@@@",
"@@@",
"@@@",
"@@@",
"@@@",
"@@@",
"@@@",
"@@@",
"###",
"..."};
