/* XPM */
static char * hide_pressed_traditional_19p_xpm[] = {
"11 11 6 1",
" 	c None",
".	c #000000",
"+	c #ffffff",
"@	c #837f83",
"#	c #000000",
"$	c #575557",
"..........+",
".@@@@@@@@@+",
".@@@@@@@@@+",
".@@@@@@@@@+",
".@@#$@@$#@+",
".@@$#$$#$@+",
".@@@$##$@@+",
".@@@@$$@@@+",
".@@@@@@@@@+",
".@@@@@@@@@+",
"+++++++++++"};
