/* XPM */
static char * menu_pressed_35p_xpm[] = {
"35 35 4 1",
" 	c None",
".	c #000000",
"+	c #7d0005",
"@	c #ffffff",
"...................................",
".+++++++++++++++++++++++++++++++++.",
".+++++++++++++++++++++++++++++++++.",
".+++++++++++++++++++++++++++++++++.",
".+++++++++++++++++++++++++++++++++.",
".+++++++++++++++++++++++++++++++++.",
".+++++++++++++++++++++++++++++++++.",
".+++++++++++++++++++++++++++++++++.",
".+++++++++++++++++++++++++++++++++.",
".+++++++++++++++++++++++++++++++++.",
".+++++++++++++++++++++++++++++++++.",
".++++++++++@@@@@@@@@@@@@@@++++++++.",
".++++++++++@@@@@@@@@@@@@@@++++++++.",
".++++++++++@@@@@@@@@@@@@@@++++++++.",
".+++++++++++++++++++++++++++++++++.",
".+++++++++++++++++++++++++++++++++.",
".+++++++++++++++++++++++++++++++++.",
".++++++++++@@@@@@@@@@@@@@@++++++++.",
".++++++++++@@@@@@@@@@@@@@@++++++++.",
".++++++++++@@@@@@@@@@@@@@@++++++++.",
".+++++++++++++++++++++++++++++++++.",
".+++++++++++++++++++++++++++++++++.",
".+++++++++++++++++++++++++++++++++.",
".++++++++++@@@@@@@@@@@@@@@++++++++.",
".++++++++++@@@@@@@@@@@@@@@++++++++.",
".++++++++++@@@@@@@@@@@@@@@++++++++.",
".+++++++++++++++++++++++++++++++++.",
".+++++++++++++++++++++++++++++++++.",
".+++++++++++++++++++++++++++++++++.",
".+++++++++++++++++++++++++++++++++.",
".+++++++++++++++++++++++++++++++++.",
".+++++++++++++++++++++++++++++++++.",
".+++++++++++++++++++++++++++++++++.",
".+++++++++++++++++++++++++++++++++.",
"..................................."};
