/* XPM */
static char * maximize_toggled_active_35p_xpm[] = {
"35 35 7 1",
" 	c None",
".	c #460000",
"+	c #ffba74",
"@	c #e27a3a",
"#	c #fb702a",
"$	c #c53a00",
"%	c #ffffff",
"...................................",
".++++++++++++++++++++++++++++++++@.",
".+###############################$.",
".+###############################$.",
".+###############################$.",
".+###############################$.",
".+###############################$.",
".+###############################$.",
".+###############%###############$.",
".+##############%%%##############$.",
".+#############%%%%%#############$.",
".+############%%%%%%%############$.",
".+###########%%%%%%%%%###########$.",
".+##########%%%%%#%%%%%##########$.",
".+#########%%%%%###%%%%%#########$.",
".+########%%%%%#####%%%%%########$.",
".+#######%%%%%#######%%%%%#######$.",
".+######%%%%%#########%%%%%######$.",
".+#######%%%%%#######%%%%%#######$.",
".+########%%%%%#####%%%%%########$.",
".+#########%%%%%###%%%%%#########$.",
".+##########%%%%%#%%%%%##########$.",
".+###########%%%%%%%%%###########$.",
".+############%%%%%%%############$.",
".+#############%%%%%#############$.",
".+##############%%%##############$.",
".+###############%###############$.",
".+###############################$.",
".+###############################$.",
".+###############################$.",
".+###############################$.",
".+###############################$.",
".+###############################$.",
".@$$$$$$$$$$$$$$$$$$$$$$$$$$$$$$$$.",
"..................................."};
