/* XPM */
static char * stick_pressed_traditional_19p_xpm[] = {
"11 11 5 1",
" 	c None",
".	c #000000",
"+	c #868f94",
"@	c #060f14",
"#	c #788589",
"..........+",
".@@@@@@@@@+",
".@@@@@@@@@+",
".@@@@@@@@@+",
".@@@@@@@@@+",
".@@@@##@@@+",
".@@@@##@@@+",
".@@@@@@@@@+",
".@@@@@@@@@+",
".@@@@@@@@@+",
"+++++++++++"};
