/* XPM */
static char * title_4_inactive_35p_xpm[] = {
"4 35 6 1",
" 	c None",
".	c #000000",
"+	c #ffffff",
"@	c #ffffff",
"#	c #aaaaaa",
"$	c #555555",
"....",
"+++@",
"###$",
"###$",
"###$",
"###$",
"###$",
"###$",
"###$",
"###$",
"###$",
"###$",
"###$",
"###$",
"###$",
"###$",
"###$",
"###$",
"###$",
"###$",
"###$",
"###$",
"###$",
"###$",
"###$",
"###$",
"###$",
"###$",
"###$",
"###$",
"###$",
"###$",
"###$",
"$$$$",
"...."};
