/* XPM */
static char * top_right_active_traditional_23p_xpm[] = {
"4 23 5 1",
" 	c #000000",
".	c #8d979b",
"+	c #4d575b",
"@	c #384246",
"#	c #0d171b",
"    ",
"..+ ",
"@@# ",
"@@# ",
"@@# ",
"@@# ",
"@@# ",
"@@# ",
"@@# ",
"@@# ",
"@@# ",
"@@# ",
"@@# ",
"@@# ",
"@@# ",
"@@# ",
"@@# ",
"@@# ",
"@@# ",
"@@# ",
"@@# ",
"### ",
"    "};
