/* XPM */
static char * title_4_inactive_19p_xpm[] = {
"4 19 6 1",
" 	c None",
".	c #2a261e",
"+	c #ffffff",
"@	c #ffffff",
"#	c #d4d0c8",
"$	c #7f7b73",
"....",
"+++@",
"###$",
"###$",
"###$",
"###$",
"###$",
"###$",
"###$",
"###$",
"###$",
"###$",
"###$",
"###$",
"###$",
"###$",
"###$",
"$$$$",
"...."};
