/* XPM */
static char * menu_pressed_23p_xpm[] = {
"23 23 4 1",
" 	c None",
".	c #000000",
"+	c #565664",
"@	c #000000",
".......................",
".+++++++++++++++++++++.",
".+++++++++++++++++++++.",
".+++++++++++++++++++++.",
".+++++++++++++++++++++.",
".+++++++++++++++++++++.",
".+++++++++++++++++++++.",
".+++++++++++++++++++++.",
".+++++++@@@@@@@@@+++++.",
".+++++++@@@@@@@@@+++++.",
".+++++++++++++++++++++.",
".++++++++@+@+@+@++++++.",
".+++++++@@@@@@@@@+++++.",
".+++++++@+@+@+@+@+++++.",
".+++++++++++++++++++++.",
".+++++++@@@@@@@@@+++++.",
".+++++++@@@@@@@@@+++++.",
".+++++++++++++++++++++.",
".+++++++++++++++++++++.",
".+++++++++++++++++++++.",
".+++++++++++++++++++++.",
".+++++++++++++++++++++.",
"......................."};
