/* XPM */
static char * title_2_active_19p_xpm[] = {
"4 19 6 1",
" 	c None",
".	c #000000",
"+	c #a3a0d4",
"@	c #4e4b7f",
"#	c #40A740",
"$	c #232054",
"....",
"++++",
"+@@@",
"+@@@",
"+@@@",
"+@@@",
"+@@@",
"+@@@",
"+@@@",
"+@@@",
"+@@@",
"+@@@",
"+@@@",
"+@@@",
"+@@@",
"+@@@",
"+@@@",
"#$$$",
"...."};
