/* XPM */
static char * close_active_traditional_35p_xpm[] = {
"27 27 7 1",
" 	c None",
".	c #ffffff",
"+	c #000000",
"@	c #aaaaaa",
"#	c #555555",
"$	c #000000",
"%	c #555555",
"..........................+",
".@@@@@@@@@@@@@@@@@@@@@@@@#+",
".@@@@@@@@@@@@@@@@@@@@@@@@#+",
".@@@@@@@@@@@@@@@@@@@@@@@@#+",
".@@@$$%@@@@@@@@@@@@%$$@@@#+",
".@@@$$$%@@@@@@@@@@%$$$@@@#+",
".@@@%$$$%@@@@@@@@%$$$%@@@#+",
".@@@@%$$$%@@@@@@%$$$%@@@@#+",
".@@@@@%$$$%@@@@%$$$%@@@@@#+",
".@@@@@@%$$$%@@%$$$%@@@@@@#+",
".@@@@@@@%$$$%%$$$%@@@@@@@#+",
".@@@@@@@@%$$$$$$%@@@@@@@@#+",
".@@@@@@@@@%$$$$%@@@@@@@@@#+",
".@@@@@@@@@%$$$$%@@@@@@@@@#+",
".@@@@@@@@%$$$$$$%@@@@@@@@#+",
".@@@@@@@%$$$%%$$$%@@@@@@@#+",
".@@@@@@%$$$%@@%$$$%@@@@@@#+",
".@@@@@%$$$%@@@@%$$$%@@@@@#+",
".@@@@%$$$%@@@@@@%$$$%@@@@#+",
".@@@%$$$%@@@@@@@@%$$$%@@@#+",
".@@@$$$%@@@@@@@@@@%$$$@@@#+",
".@@@$$%@@@@@@@@@@@@%$$@@@#+",
".@@@@@@@@@@@@@@@@@@@@@@@@#+",
".@@@@@@@@@@@@@@@@@@@@@@@@#+",
".@@@@@@@@@@@@@@@@@@@@@@@@#+",
".#########################+",
"+++++++++++++++++++++++++++"};
