/* XPM */
static char * shade_active_traditional_19p_xpm[] = {
"11 11 7 1",
" 	c None",
".	c #878a93",
"+	c #000000",
"@	c #32353e",
"#	c #000000",
"$	c #ffffff",
"%	c #999a9f",
"..........+",
".@@@@@@@@#+",
".@$$$$$$@#+",
".@@@@@@@@#+",
".@@@%%@@@#+",
".@@%$$%@@#+",
".@%$%%$%@#+",
".@$%@@%$@#+",
".@@@@@@@@#+",
".#########+",
"+++++++++++"};
