/* XPM */
static char * shade_active_19p_xpm[] = {
"19 19 7 1",
" 	c None",
".	c #000000",
"+	c #a5a5a5",
"@	c #656565",
"#	c #505050",
"$	c #252525",
"%	c #b4b4b4",
"...................",
".++++++++++++++++@.",
".+###############$.",
".+###############$.",
".+###############$.",
".+###############$.",
".+####%%%%%%%####$.",
".+####%#%#%#%####$.",
".+#######%#######$.",
".+######%%%######$.",
".+#####%%%%%#####$.",
".+####%%%#%%%####$.",
".+####%%###%%####$.",
".+###############$.",
".+###############$.",
".+###############$.",
".+###############$.",
".@$$$$$$$$$$$$$$$$.",
"..................."};
