<?xml version="1.0" encoding="UTF-8" standalone="no"?>
<svg
   xmlns:dc="http://purl.org/dc/elements/1.1/"
   xmlns:cc="http://creativecommons.org/ns#"
   xmlns:rdf="http://www.w3.org/1999/02/22-rdf-syntax-ns#"
   xmlns:svg="http://www.w3.org/2000/svg"
   xmlns="http://www.w3.org/2000/svg"
   xmlns:sodipodi="http://sodipodi.sourceforge.net/DTD/sodipodi-0.dtd"
   xmlns:inkscape="http://www.inkscape.org/namespaces/inkscape"
   width="32"
   version="1.0"
   height="32.000431"
   id="svg1406"
   sodipodi:docname="reboot.svg"
   inkscape:version="0.92.1 r15371">
  <sodipodi:namedview
     fit-margin-bottom="0"
     fit-margin-right="0"
     fit-margin-left="0"
     fit-margin-top="0"
     inkscape:snap-nodes="true"
     inkscape:bbox-nodes="true"
     inkscape:snap-bbox="true"
     pagecolor="#c080c0"
     bordercolor="#666666"
     borderopacity="1"
     objecttolerance="10"
     gridtolerance="10"
     guidetolerance="10"
     inkscape:pageopacity="0"
     inkscape:pageshadow="2"
     inkscape:window-width="1867"
     inkscape:window-height="1054"
     id="namedview1408"
     showgrid="true"
     inkscape:window-x="0"
     inkscape:window-y="0"
     inkscape:window-maximized="1"
     inkscape:current-layer="g4679">
    <inkscape:grid
       type="xygrid"
       id="grid2217"
       spacingx="1"
       spacingy="1"
       empspacing="5"
       originx="-70"
       originy="-1188" />
  </sodipodi:namedview>
  <metadata
     id="metadata1410">
    <rdf:RDF>
      <cc:Work
         rdf:about="">
        <dc:format>image/svg+xml</dc:format>
        <dc:type
           rdf:resource="http://purl.org/dc/dcmitype/StillImage" />
        <dc:title></dc:title>
      </cc:Work>
    </rdf:RDF>
  </metadata>
  <defs
     id="defs312" />
  <g
     id="g4679"
     transform="translate(-5,-3.0000001)">
    <path
       inkscape:connector-curvature="0"
       id="path4667"
       d="m 22.000047,5.0004369 v 2.999865 a 11.999047,12.002709 0 0 1 8.484077,3.5076551 11.999047,12.002709 0 0 1 0,16.973845 11.999047,12.002709 0 0 1 -16.968154,0 11.999047,12.002709 0 0 1 0,-16.973845 l 2.12102,2.120998 1.060509,-7.4254473 -7.4235674,1.0604992 2.1210194,2.1209983 a 14.998809,15.003387 0 0 0 -0.002,0.00195 14.998809,15.003387 0 0 0 0,21.2177958 14.998809,15.003387 0 0 0 21.214098,0 14.998809,15.003387 0 0 0 0,-21.2177958 A 14.998809,15.003387 0 0 0 22,5.0004338 Z"
       style="opacity:1;vector-effect:none;fill:#e1e1e4;fill-opacity:1;stroke:none;stroke-width:0.5000366;stroke-linecap:square;stroke-linejoin:miter;stroke-miterlimit:4;stroke-dasharray:none;stroke-dashoffset:0;stroke-opacity:1;marker:none" />
    <path
       style="opacity:1;vector-effect:none;fill:#37373a;fill-opacity:1;stroke:none;stroke-width:0.5000366;stroke-linecap:square;stroke-linejoin:miter;stroke-miterlimit:4;stroke-dasharray:none;stroke-dashoffset:0;stroke-opacity:1;marker:none"
       d="m 20.000047,3.000437 v 2.999865 a 11.999047,12.002709 0 0 1 8.484077,3.5076549 11.999047,12.002709 0 0 1 0,16.9738451 11.999047,12.002709 0 0 1 -16.968154,0 11.999047,12.002709 0 0 1 0,-16.9738451 l 2.12102,2.1209981 1.060509,-7.4254472 -7.4235674,1.0604992 2.121019,2.1209983 a 14.998809,15.003387 0 0 0 -0.002,0.00195 14.998809,15.003387 0 0 0 0,21.2177957 14.998809,15.003387 0 0 0 21.2140984,0 14.998809,15.003387 0 0 0 0,-21.2177957 A 14.998809,15.003387 0 0 0 20,3.0004339 Z"
       id="path4651"
       inkscape:connector-curvature="0" />
    <path
       inkscape:connector-curvature="0"
       id="path4635"
       d="m 21.000047,4.0004371 v 2.999865 a 11.999047,12.002709 0 0 1 8.484077,3.5076549 11.999047,12.002709 0 0 1 0,16.973845 11.999047,12.002709 0 0 1 -16.968154,0 11.999047,12.002709 0 0 1 0,-16.973845 l 2.12102,2.120998 1.060509,-7.4254471 -7.4235674,1.0604992 2.1210194,2.1209983 a 14.998809,15.003387 0 0 0 -0.002,0.00195 14.998809,15.003387 0 0 0 0,21.2177956 14.998809,15.003387 0 0 0 21.214098,0 14.998809,15.003387 0 0 0 0,-21.2177956 A 14.998809,15.003387 0 0 0 21,4.000434 Z"
       style="opacity:1;vector-effect:none;fill:#8c8c8f;fill-opacity:1;stroke:none;stroke-width:0.5000366;stroke-linecap:square;stroke-linejoin:miter;stroke-miterlimit:4;stroke-dasharray:none;stroke-dashoffset:0;stroke-opacity:1;marker:none" />
    <path
       style="opacity:0.5;vector-effect:none;fill:#000000;fill-opacity:1;stroke:none;stroke-width:0.5000366;stroke-linecap:square;stroke-linejoin:miter;stroke-miterlimit:4;stroke-dasharray:none;stroke-dashoffset:0;stroke-opacity:1;marker:none"
       d="m 21.000047,4.0004371 v 2.999865 a 11.999047,12.002709 0 0 1 8.484077,3.5076549 11.999047,12.002709 0 0 1 0,16.973845 11.999047,12.002709 0 0 1 -16.968154,0 11.999047,12.002709 0 0 1 0,-16.973845 l 2.12102,2.120998 1.060509,-7.4254471 -7.4235674,1.0604992 2.1210194,2.1209983 a 14.998809,15.003387 0 0 0 -0.002,0.00195 14.998809,15.003387 0 0 0 0,21.2177956 14.998809,15.003387 0 0 0 21.214098,0 14.998809,15.003387 0 0 0 0,-21.2177956 A 14.998809,15.003387 0 0 0 21,4.000434 Z"
       id="path4525-3"
       inkscape:connector-curvature="0" />
  </g>
</svg>
