<?xml version="1.0" encoding="UTF-8" standalone="no"?>
<svg
   xmlns:dc="http://purl.org/dc/elements/1.1/"
   xmlns:cc="http://creativecommons.org/ns#"
   xmlns:rdf="http://www.w3.org/1999/02/22-rdf-syntax-ns#"
   xmlns:svg="http://www.w3.org/2000/svg"
   xmlns="http://www.w3.org/2000/svg"
   xmlns:sodipodi="http://sodipodi.sourceforge.net/DTD/sodipodi-0.dtd"
   xmlns:inkscape="http://www.inkscape.org/namespaces/inkscape"
   width="32"
   version="1.0"
   height="32.000431"
   id="svg1406"
   sodipodi:docname="shutdown.svg"
   inkscape:version="0.92.1 r15371">
  <sodipodi:namedview
     fit-margin-bottom="0"
     fit-margin-right="0"
     fit-margin-left="0"
     fit-margin-top="0"
     inkscape:snap-nodes="true"
     inkscape:bbox-nodes="true"
     inkscape:snap-bbox="true"
     pagecolor="#c080c0"
     bordercolor="#666666"
     borderopacity="1"
     objecttolerance="10"
     gridtolerance="10"
     guidetolerance="10"
     inkscape:pageopacity="0"
     inkscape:pageshadow="2"
     inkscape:window-width="1867"
     inkscape:window-height="1054"
     id="namedview1408"
     showgrid="true"
     inkscape:window-x="0"
     inkscape:window-y="0"
     inkscape:window-maximized="1"
     inkscape:current-layer="g4679">
    <inkscape:grid
       type="xygrid"
       id="grid2217"
       spacingx="1"
       spacingy="1"
       empspacing="5"
       originx="-70"
       originy="-1188" />
  </sodipodi:namedview>
  <metadata
     id="metadata1410">
    <rdf:RDF>
      <cc:Work
         rdf:about="">
        <dc:format>image/svg+xml</dc:format>
        <dc:type
           rdf:resource="http://purl.org/dc/dcmitype/StillImage" />
        <dc:title></dc:title>
      </cc:Work>
    </rdf:RDF>
  </metadata>
  <defs
     id="defs312" />
  <g
     id="g4679"
     transform="translate(-5,-3.0000001)">
    <g
       transform="translate(1,0.99999975)"
       style="opacity:1;fill:#e1e1e4;fill-opacity:1"
       id="g4673">
      <path
         inkscape:connector-curvature="0"
         style="opacity:1;vector-effect:none;fill:#e1e1e4;fill-opacity:1;stroke:none;stroke-width:0.5;stroke-linecap:square;stroke-linejoin:miter;stroke-miterlimit:4;stroke-dasharray:none;stroke-dashoffset:0;stroke-opacity:1;marker:none"
         d="M 16,1 A 15,15 0 0 0 1,16 15,15 0 0 0 16,31 15,15 0 0 0 31,16 15,15 0 0 0 16,1 Z m 0,3 A 12,12 0 0 1 28,16 12,12 0 0 1 16,28 12,12 0 0 1 4,16 12,12 0 0 1 16,4 Z"
         transform="translate(5,3.0000001)"
         id="path4669" />
      <rect
         style="opacity:1;vector-effect:none;fill:#e1e1e4;fill-opacity:1;stroke:none;stroke-width:0.47434163;stroke-linecap:square;stroke-linejoin:miter;stroke-miterlimit:4;stroke-dasharray:none;stroke-dashoffset:0;stroke-opacity:1;marker:none"
         id="rect4671"
         width="3"
         height="18"
         x="19.5"
         y="10.000431" />
    </g>
    <g
       id="g4657"
       style="opacity:1;fill:#37373a;fill-opacity:1"
       transform="translate(-1,-1.0000001)">
      <path
         id="path4653"
         transform="translate(5,3.0000001)"
         d="M 16,1 A 15,15 0 0 0 1,16 15,15 0 0 0 16,31 15,15 0 0 0 31,16 15,15 0 0 0 16,1 Z m 0,3 A 12,12 0 0 1 28,16 12,12 0 0 1 16,28 12,12 0 0 1 4,16 12,12 0 0 1 16,4 Z"
         style="opacity:1;vector-effect:none;fill:#37373a;fill-opacity:1;stroke:none;stroke-width:0.5;stroke-linecap:square;stroke-linejoin:miter;stroke-miterlimit:4;stroke-dasharray:none;stroke-dashoffset:0;stroke-opacity:1;marker:none"
         inkscape:connector-curvature="0" />
      <rect
         y="10.000431"
         x="19.5"
         height="18"
         width="3"
         id="rect4655"
         style="opacity:1;vector-effect:none;fill:#37373a;fill-opacity:1;stroke:none;stroke-width:0.47434163;stroke-linecap:square;stroke-linejoin:miter;stroke-miterlimit:4;stroke-dasharray:none;stroke-dashoffset:0;stroke-opacity:1;marker:none" />
    </g>
    <g
       style="fill:#8c8c8f;fill-opacity:1;opacity:1"
       id="g4641">
      <path
         style="opacity:1;vector-effect:none;fill:#8c8c8f;fill-opacity:1;stroke:none;stroke-width:0.5;stroke-linecap:square;stroke-linejoin:miter;stroke-miterlimit:4;stroke-dasharray:none;stroke-dashoffset:0;stroke-opacity:1;marker:none"
         d="M 16 1 A 15 15 0 0 0 1 16 A 15 15 0 0 0 16 31 A 15 15 0 0 0 31 16 A 15 15 0 0 0 16 1 z M 16 4 A 12 12 0 0 1 28 16 A 12 12 0 0 1 16 28 A 12 12 0 0 1 4 16 A 12 12 0 0 1 16 4 z "
         transform="translate(5,3.0000001)"
         id="path4637" />
      <rect
         style="opacity:1;vector-effect:none;fill:#8c8c8f;fill-opacity:1;stroke:none;stroke-width:0.47434163;stroke-linecap:square;stroke-linejoin:miter;stroke-miterlimit:4;stroke-dasharray:none;stroke-dashoffset:0;stroke-opacity:1;marker:none"
         id="rect4639"
         width="3"
         height="18"
         x="19.5"
         y="10.000431" />
    </g>
    <g
       id="g4628"
       style="fill:#000000;fill-opacity:1;opacity:0.5">
      <path
         id="path4525"
         transform="translate(5,3.0000001)"
         d="M 16 1 A 15 15 0 0 0 1 16 A 15 15 0 0 0 16 31 A 15 15 0 0 0 31 16 A 15 15 0 0 0 16 1 z M 16 4 A 12 12 0 0 1 28 16 A 12 12 0 0 1 16 28 A 12 12 0 0 1 4 16 A 12 12 0 0 1 16 4 z "
         style="opacity:1;vector-effect:none;fill:#000000;fill-opacity:1;stroke:none;stroke-width:0.5;stroke-linecap:square;stroke-linejoin:miter;stroke-miterlimit:4;stroke-dasharray:none;stroke-dashoffset:0;stroke-opacity:1;marker:none" />
      <rect
         y="10.000431"
         x="19.5"
         height="18"
         width="3"
         id="rect4566"
         style="opacity:1;vector-effect:none;fill:#000000;fill-opacity:1;stroke:none;stroke-width:0.47434163;stroke-linecap:square;stroke-linejoin:miter;stroke-miterlimit:4;stroke-dasharray:none;stroke-dashoffset:0;stroke-opacity:1;marker:none" />
    </g>
  </g>
</svg>
