/* XPM */
static char * title_2_active_27p_xpm[] = {
"4 27 6 1",
" 	c None",
".	c #000000",
"+	c #dddfda",
"@	c #888a85",
"#	c #dddfda",
"$	c #333530",
"....",
"++++",
"+@@@",
"+@@@",
"+@@@",
"+@@@",
"+@@@",
"+@@@",
"+@@@",
"+@@@",
"+@@@",
"+@@@",
"+@@@",
"+@@@",
"+@@@",
"+@@@",
"+@@@",
"+@@@",
"+@@@",
"+@@@",
"+@@@",
"+@@@",
"+@@@",
"+@@@",
"+@@@",
"#$$$",
"...."};
