/* XPM */
static char * hide_active_23p_xpm[] = {
"23 23 7 1",
" 	c None",
".	c #390000",
"+	c #ffff55",
"@	c #dcbf2b",
"#	c #e3aa00",
"$	c #b87f00",
"%	c #ffffff",
".......................",
".++++++++++++++++++++@.",
".+###################$.",
".+###################$.",
".+###################$.",
".+###################$.",
".+###################$.",
".+###################$.",
".+###################$.",
".+#####%%#####%%#####$.",
".+#####%%%###%%%#####$.",
".+######%%%#%%%######$.",
".+#######%%%%%#######$.",
".+########%%%########$.",
".+#########%#########$.",
".+###################$.",
".+###################$.",
".+###################$.",
".+###################$.",
".+###################$.",
".+###################$.",
".@$$$$$$$$$$$$$$$$$$$$.",
"......................."};
