/* XPM */
static char * hide_pressed_traditional_23p_xpm[] = {
"15 15 6 1",
" 	c None",
".	c #10130d",
"+	c #ffffff",
"@	c #8f928c",
"#	c #5d5f5c",
"$	c #000000",
"..............+",
".@@@@@@@@@@@@@+",
".@@@@@@@@@@@@@+",
".@@@@@@@@@@@@@+",
".@@@@@@@@@@@@@+",
".@@##@@@@@@##@+",
".@@#$#@@@@#$#@+",
".@@@#$#@@#$#@@+",
".@@@@#$##$#@@@+",
".@@@@@#$$#@@@@+",
".@@@@@@##@@@@@+",
".@@@@@@@@@@@@@+",
".@@@@@@@@@@@@@+",
".@@@@@@@@@@@@@+",
"+++++++++++++++"};
