/* XPM */
static char * top_left_active_traditional_23p_xpm[] = {
"4 23 5 1",
" 	c #390000",
".	c #ffff55",
"+	c #e3aa00",
"@	c #dcbf2b",
"#	c #b87f00",
"    ",
" ...",
" .++",
" .++",
" .++",
" .++",
" .++",
" .++",
" .++",
" .++",
" .++",
" .++",
" .++",
" .++",
" .++",
" .++",
" .++",
" .++",
" .++",
" .++",
" .++",
" @##",
"    "};
