/* XPM */
static char * stick_pressed_traditional_23p_xpm[] = {
"15 15 5 1",
" 	c None",
".	c #000000",
"+	c #a7adb8",
"@	c #272d38",
"#	c #d2def0",
"..............+",
".@@@@@@@@@@@@@+",
".@@@@@@@@@@@@@+",
".@@@@@@@@@@@@@+",
".@@@@@@@@@@@@@+",
".@@@@@@@@@@@@@+",
".@@@@@@@@@@@@@+",
".@@@@@@##@@@@@+",
".@@@@@@##@@@@@+",
".@@@@@@@@@@@@@+",
".@@@@@@@@@@@@@+",
".@@@@@@@@@@@@@+",
".@@@@@@@@@@@@@+",
".@@@@@@@@@@@@@+",
"+++++++++++++++"};
