/* XPM */
static char * maximize_toggled_active_traditional_35p_xpm[] = {
"27 27 7 1",
" 	c None",
".	c #fffff3",
"+	c #1c0a00",
"@	c #c6b49e",
"#	c #715f49",
"$	c #635a4f",
"%	c #000000",
"..........................+",
".@@@@@@@@@@@@@@@@@@@@@@@@#+",
".@@@@@@@@@@@$$@@@@@@@@@@@#+",
".@@@@@@@@@@$%%$@@@@@@@@@@#+",
".@@@@@@@@@$%%%%$@@@@@@@@@#+",
".@@@@@@@@$%%%%%%$@@@@@@@@#+",
".@@@@@@@$%%%$$%%%$@@@@@@@#+",
".@@@@@@$%%%$@@$%%%$@@@@@@#+",
".@@@@@$%%%$@@@@$%%%$@@@@@#+",
".@@@@$%%%$@@@@@@$%%%$@@@@#+",
".@@@$%%%$@@@@@@@@$%%%$@@@#+",
".@@$%%%$@@@@@@@@@@$%%%$@@#+",
".@$%%%$@@@@@@@@@@@@$%%%$@#+",
".@$%%%$@@@@@@@@@@@@$%%%$@#+",
".@@$%%%$@@@@@@@@@@$%%%$@@#+",
".@@@$%%%$@@@@@@@@$%%%$@@@#+",
".@@@@$%%%$@@@@@@$%%%$@@@@#+",
".@@@@@$%%%$@@@@$%%%$@@@@@#+",
".@@@@@@$%%%$@@$%%%$@@@@@@#+",
".@@@@@@@$%%%$$%%%$@@@@@@@#+",
".@@@@@@@@$%%%%%%$@@@@@@@@#+",
".@@@@@@@@@$%%%%$@@@@@@@@@#+",
".@@@@@@@@@@$%%$@@@@@@@@@@#+",
".@@@@@@@@@@@$$@@@@@@@@@@@#+",
".@@@@@@@@@@@@@@@@@@@@@@@@#+",
".#########################+",
"+++++++++++++++++++++++++++"};
