/* XPM */
static char * menu_active_19p_xpm[] = {
"19 19 7 1",
" 	c None",
".	c #460000",
"+	c #ffba74",
"@	c #e27a3a",
"#	c #f0651f",
"$	c #c53a00",
"%	c #ffffff",
"...................",
".++++++++++++++++@.",
".+###############$.",
".+###############$.",
".+###############$.",
".+###############$.",
".+####%%%%%%%####$.",
".+####%#%#%#%####$.",
".+#####%#%#%#####$.",
".+####%%%%%%%####$.",
".+####%#%#%#%####$.",
".+#####%#%#%#####$.",
".+####%%%%%%%####$.",
".+###############$.",
".+###############$.",
".+###############$.",
".+###############$.",
".@$$$$$$$$$$$$$$$$.",
"..................."};
