/* XPM */
static char * menu_active_27p_xpm[] = {
"27 27 7 1",
" 	c None",
".	c #292929",
"+	c #ffffff",
"@	c #ffffff",
"#	c #d3d3d3",
"$	c #7e7e7e",
"%	c #000000",
"...........................",
".++++++++++++++++++++++++@.",
".+#######################$.",
".+#######################$.",
".+#######################$.",
".+#######################$.",
".+#######################$.",
".+#######################$.",
".+######%%%%%%%%%%%######$.",
".+######%%%%%%%%%%%######$.",
".+#######################$.",
".+#######################$.",
".+#######%#%#%#%#%#######$.",
".+######%%%%%%%%%%%######$.",
".+######%#%#%#%#%#%######$.",
".+#######################$.",
".+#######################$.",
".+######%%%%%%%%%%%######$.",
".+######%%%%%%%%%%%######$.",
".+#######################$.",
".+#######################$.",
".+#######################$.",
".+#######################$.",
".+#######################$.",
".+#######################$.",
".@$$$$$$$$$$$$$$$$$$$$$$$$.",
"..........................."};
