/* XPM */
static char * stick_active_traditional_23p_xpm[] = {
"15 15 6 1",
" 	c None",
".	c #878a93",
"+	c #000000",
"@	c #32353e",
"#	c #000000",
"$	c #ffffff",
"..............+",
".@@@@@@@@@@@@#+",
".@@@@@@@@@@@@#+",
".@@@@@@@@@@@@#+",
".@@@@@@@@@@@@#+",
".@@@@@@@@@@@@#+",
".@@@@@$$@@@@@#+",
".@@@@@$$@@@@@#+",
".@@@@@@@@@@@@#+",
".@@@@@@@@@@@@#+",
".@@@@@@@@@@@@#+",
".@@@@@@@@@@@@#+",
".@@@@@@@@@@@@#+",
".#############+",
"+++++++++++++++"};
