/* XPM */
static char * stick_pressed_31p_xpm[] = {
"31 31 4 1",
" 	c None",
".	c #000000",
"+	c #67697d",
"@	c #333333",
"...............................",
".+++++++++++++++++++++++++++++.",
".+++++++++++++++++++++++++++++.",
".+++++++++++++++++++++++++++++.",
".+++++++++++++++++++++++++++++.",
".+++++++++++++++++++++++++++++.",
".+++++++++++++++++++++++++++++.",
".+++++++++++++++++++++++++++++.",
".+++++++++++++++++++++++++++++.",
".+++++++++++++++++++++++++++++.",
".+++++++++++++++++++++++++++++.",
".+++++++++++++++++++++++++++++.",
".+++++++++++++++++++++++++++++.",
".+++++++++++++++++++++++++++++.",
".+++++++++++++++++++++++++++++.",
".++++++++++++++@@@++++++++++++.",
".++++++++++++++@@@++++++++++++.",
".++++++++++++++@@@++++++++++++.",
".+++++++++++++++++++++++++++++.",
".+++++++++++++++++++++++++++++.",
".+++++++++++++++++++++++++++++.",
".+++++++++++++++++++++++++++++.",
".+++++++++++++++++++++++++++++.",
".+++++++++++++++++++++++++++++.",
".+++++++++++++++++++++++++++++.",
".+++++++++++++++++++++++++++++.",
".+++++++++++++++++++++++++++++.",
".+++++++++++++++++++++++++++++.",
".+++++++++++++++++++++++++++++.",
".+++++++++++++++++++++++++++++.",
"..............................."};
