/* XPM */
static char * stick_active_traditional_35p_xpm[] = {
"27 27 7 1",
" 	c None",
".	c #ffffff",
"+	c #040004",
"@	c #aeaaae",
"#	c #595559",
"$	c #575557",
"%	c #000000",
"..........................+",
".@@@@@@@@@@@@@@@@@@@@@@@@#+",
".@@@@@@@@@@@@@@@@@@@@@@@@#+",
".@@@@@@@@@@@@@@@@@@@@@@@@#+",
".@@@@@@@@@@@@@@@@@@@@@@@@#+",
".@@@@@@@@@@@@@@@@@@@@@@@@#+",
".@@@@@@@@@@@@@@@@@@@@@@@@#+",
".@@@@@@@@@@@@@@@@@@@@@@@@#+",
".@@@@@@@@@@@@@@@@@@@@@@@@#+",
".@@@@@@@@@@@@@@@@@@@@@@@@#+",
".@@@@@@@@@@@@@@@@@@@@@@@@#+",
".@@@@@@@@@@$$$$@@@@@@@@@@#+",
".@@@@@@@@@@$%%$@@@@@@@@@@#+",
".@@@@@@@@@@$%%$@@@@@@@@@@#+",
".@@@@@@@@@@$$$$@@@@@@@@@@#+",
".@@@@@@@@@@@@@@@@@@@@@@@@#+",
".@@@@@@@@@@@@@@@@@@@@@@@@#+",
".@@@@@@@@@@@@@@@@@@@@@@@@#+",
".@@@@@@@@@@@@@@@@@@@@@@@@#+",
".@@@@@@@@@@@@@@@@@@@@@@@@#+",
".@@@@@@@@@@@@@@@@@@@@@@@@#+",
".@@@@@@@@@@@@@@@@@@@@@@@@#+",
".@@@@@@@@@@@@@@@@@@@@@@@@#+",
".@@@@@@@@@@@@@@@@@@@@@@@@#+",
".@@@@@@@@@@@@@@@@@@@@@@@@#+",
".#########################+",
"+++++++++++++++++++++++++++"};
