/* XPM */
static char * maximize_active_traditional_19p_xpm[] = {
"11 11 7 1",
" 	c None",
".	c #ffffff",
"+	c #3e3e3e",
"@	c #e8e8e8",
"#	c #939393",
"$	c #8f8f8f",
"%	c #363636",
"..........+",
".@@@@@@@@#+",
".@@@@@@@@#+",
".@@@$$@@@#+",
".@@$%%$@@#+",
".@$%$$%$@#+",
".@%$@@$%@#+",
".@@@@@@@@#+",
".@@@@@@@@#+",
".#########+",
"+++++++++++"};
