/* XPM */
static char * stick_pressed_27p_xpm[] = {
"27 27 4 1",
" 	c None",
".	c #000000",
"+	c #272e38",
"@	c #8c98a8",
"...........................",
".+++++++++++++++++++++++++.",
".+++++++++++++++++++++++++.",
".+++++++++++++++++++++++++.",
".+++++++++++++++++++++++++.",
".+++++++++++++++++++++++++.",
".+++++++++++++++++++++++++.",
".+++++++++++++++++++++++++.",
".+++++++++++++++++++++++++.",
".+++++++++++++++++++++++++.",
".+++++++++++++++++++++++++.",
".+++++++++++++++++++++++++.",
".+++++++++++++++++++++++++.",
".++++++++++++@@@++++++++++.",
".++++++++++++@@@++++++++++.",
".++++++++++++@@@++++++++++.",
".+++++++++++++++++++++++++.",
".+++++++++++++++++++++++++.",
".+++++++++++++++++++++++++.",
".+++++++++++++++++++++++++.",
".+++++++++++++++++++++++++.",
".+++++++++++++++++++++++++.",
".+++++++++++++++++++++++++.",
".+++++++++++++++++++++++++.",
".+++++++++++++++++++++++++.",
".+++++++++++++++++++++++++.",
"..........................."};
