/* XPM */
static char * stick_pressed_31p_xpm[] = {
"31 31 4 1",
" 	c None",
".	c #460000",
"+	c #c53a00",
"@	c #ffffff",
"...............................",
".+++++++++++++++++++++++++++++.",
".+++++++++++++++++++++++++++++.",
".+++++++++++++++++++++++++++++.",
".+++++++++++++++++++++++++++++.",
".+++++++++++++++++++++++++++++.",
".+++++++++++++++++++++++++++++.",
".+++++++++++++++++++++++++++++.",
".+++++++++++++++++++++++++++++.",
".+++++++++++++++++++++++++++++.",
".+++++++++++++++++++++++++++++.",
".+++++++++++++++++++++++++++++.",
".+++++++++++++++++++++++++++++.",
".+++++++++++++++++++++++++++++.",
".+++++++++++++++++++++++++++++.",
".++++++++++++++@@@++++++++++++.",
".++++++++++++++@@@++++++++++++.",
".++++++++++++++@@@++++++++++++.",
".+++++++++++++++++++++++++++++.",
".+++++++++++++++++++++++++++++.",
".+++++++++++++++++++++++++++++.",
".+++++++++++++++++++++++++++++.",
".+++++++++++++++++++++++++++++.",
".+++++++++++++++++++++++++++++.",
".+++++++++++++++++++++++++++++.",
".+++++++++++++++++++++++++++++.",
".+++++++++++++++++++++++++++++.",
".+++++++++++++++++++++++++++++.",
".+++++++++++++++++++++++++++++.",
".+++++++++++++++++++++++++++++.",
"..............................."};
