/* XPM */
static char * shade_active_31p_xpm[] = {
"31 31 7 1",
" 	c None",
".	c #000000",
"+	c #c0f0f4",
"@	c #80b0b4",
"#	c #6b9b9f",
"$	c #407074",
"%	c #ffffff",
"...............................",
".++++++++++++++++++++++++++++@.",
".+###########################$.",
".+###########################$.",
".+###########################$.",
".+###########################$.",
".+###########################$.",
".+###########################$.",
".+###########################$.",
".+#######%%%%%%%%%%%%%#######$.",
".+#######%%%%%%%%%%%%%#######$.",
".+#######%%%%%%%%%%%%%#######$.",
".+###########################$.",
".+#############%#############$.",
".+############%%%############$.",
".+###########%%%%%###########$.",
".+##########%%%%%%%##########$.",
".+#########%%%%%%%%%#########$.",
".+########%%%%%#%%%%%########$.",
".+#######%%%%%###%%%%%#######$.",
".+#######%%%%#####%%%%#######$.",
".+#######%%%#######%%%#######$.",
".+###########################$.",
".+###########################$.",
".+###########################$.",
".+###########################$.",
".+###########################$.",
".+###########################$.",
".+###########################$.",
".@$$$$$$$$$$$$$$$$$$$$$$$$$$$$.",
"..............................."};
