/* XPM */
static char * maximize_toggled_active_traditional_23p_xpm[] = {
"15 15 6 1",
" 	c None",
".	c #868b90",
"+	c #000000",
"@	c #3c4146",
"#	c #000000",
"$	c #dbe0e5",
"..............+",
".@@@@@@@@@@@@#+",
".@@@@@$$@@@@@#+",
".@@@@$$$$@@@@#+",
".@@@$$@@$$@@@#+",
".@@$$@@@@$$@@#+",
".@$$@@@@@@$$@#+",
".@$$@@@@@@$$@#+",
".@@$$@@@@$$@@#+",
".@@@$$@@$$@@@#+",
".@@@@$$$$@@@@#+",
".@@@@@$$@@@@@#+",
".@@@@@@@@@@@@#+",
".#############+",
"+++++++++++++++"};
