/* XPM */
static char * stick_pressed_23p_xpm[] = {
"23 23 4 1",
" 	c None",
".	c #000000",
"+	c #67697d",
"@	c #333333",
".......................",
".+++++++++++++++++++++.",
".+++++++++++++++++++++.",
".+++++++++++++++++++++.",
".+++++++++++++++++++++.",
".+++++++++++++++++++++.",
".+++++++++++++++++++++.",
".+++++++++++++++++++++.",
".+++++++++++++++++++++.",
".+++++++++++++++++++++.",
".+++++++++++++++++++++.",
".++++++++++@@@++++++++.",
".++++++++++@@@++++++++.",
".++++++++++@@@++++++++.",
".+++++++++++++++++++++.",
".+++++++++++++++++++++.",
".+++++++++++++++++++++.",
".+++++++++++++++++++++.",
".+++++++++++++++++++++.",
".+++++++++++++++++++++.",
".+++++++++++++++++++++.",
".+++++++++++++++++++++.",
"......................."};
